# xmcd
#
# Track frame offsets:
#	182
#	15775
#	30957
#	47147
#	61990
#	79752
#	95362
#	113330
#	129427
#	145052
#	161817
#	176745
#
# Disc length: 2554 seconds
#
# Revision: 1
# Processed by: cddbd v1.5.2PL0 Copyright (c) Steve Scherf et al.
# Submitted via: audiograbber 1.83.01
#
DISCID=8809f80c
DTITLE=LINDOMAR CASTILHO - MURALHAS DA SOLIDÃO
DYEAR=1900
DGENRE=
TTITLE0=VOLTA JESUS
TTITLE1=ESTRELA GUIA
TTITLE2=ADEUS NÃO DOU
TTITLE3=PITADAS DE CIÚME
TTITLE4=EU E O MEU CORAÇÃO
TTITLE5=PRISÃO DO LAVRADOR
TTITLE6=MURALHA DA SOLIDÃO
TTITLE7=ALFA E ÔMEGA
TTITLE8=SOLIDÃO À TOA
TTITLE9=NO SEU DIA DE FESTA
TTITLE10=LINDA
TTITLE11=ARAGUAIA
EXTD=
EXTT0=
EXTT1=
EXTT2=
EXTT3=
EXTT4=
EXTT5=
EXTT6=
EXTT7=
EXTT8=
EXTT9=
EXTT10=
EXTT11=
PLAYORDER=
